<svg xmlns="http://www.w3.org/2000/svg" viewBox="7.48 -124.68 301.29 127.15" role="img" aria-label="Enrich"><path fill="#83AA3D" d="M50.09765625 0.0H8.984375V-71.38671875H50.09765625V-58.984375H24.12109375V-43.310546875H48.291015625V-30.908203125H24.12109375V-12.5H50.09765625Z M94.82421875 -55.615234375Q103.564453125 -55.615234375 108.88671875 -50.8544921875Q114.208984375 -46.09375 114.208984375 -35.595703125V0.0H99.31640625V-31.884765625Q99.31640625 -37.744140625 97.1923828125 -40.72265625Q95.068359375 -43.701171875 90.52734375 -43.701171875Q83.69140625 -43.701171875 81.201171875 -39.0625Q78.7109375 -34.423828125 78.7109375 -25.68359375V0.0H63.818359375V-54.58984375H75.1953125L77.197265625 -47.607421875H78.02734375Q79.78515625 -50.439453125 82.3974609375 -52.197265625Q85.009765625 -53.955078125 88.2080078125 -54.78515625Q91.40625 -55.615234375 94.82421875 -55.615234375Z M160.009765625 -55.615234375Q161.1328125 -55.615234375 162.6220703125 -55.4931640625Q164.111328125 -55.37109375 165.0390625 -55.17578125L163.916015625 -41.2109375Q163.18359375 -41.455078125 161.8408203125 -41.5771484375Q160.498046875 -41.69921875 159.521484375 -41.69921875Q156.640625 -41.69921875 153.9306640625 -40.966796875Q151.220703125 -40.234375 149.072265625 -38.5986328125Q146.923828125 -36.962890625 145.6787109375 -34.3017578125Q144.43359375 -31.640625 144.43359375 -27.783203125V0.0H129.541015625V-54.58984375H140.8203125L143.017578125 -45.41015625H143.75Q145.361328125 -48.193359375 147.7783203125 -50.5126953125Q150.1953125 -52.83203125 153.2958984375 -54.2236328125Q156.396484375 -55.615234375 160.009765625 -55.615234375Z M189.84375 -54.58984375V0.0H174.951171875V-54.58984375Z M227.63671875 0.9765625Q219.53125 0.9765625 213.818359375 -1.9775390625Q208.10546875 -4.931640625 205.126953125 -11.1328125Q202.1484375 -17.333984375 202.1484375 -27.001953125Q202.1484375 -37.01171875 205.5419921875 -43.3349609375Q208.935546875 -49.658203125 214.9658203125 -52.63671875Q220.99609375 -55.615234375 228.955078125 -55.615234375Q234.619140625 -55.615234375 238.7451171875 -54.5166015625Q242.87109375 -53.41796875 245.947265625 -51.904296875L241.552734375 -40.380859375Q238.037109375 -41.796875 235.009765625 -42.7001953125Q231.982421875 -43.603515625 228.955078125 -43.603515625Q225.048828125 -43.603515625 222.4609375 -41.7724609375Q219.873046875 -39.94140625 218.603515625 -36.279296875Q217.333984375 -32.6171875 217.333984375 -27.099609375Q217.333984375 -21.6796875 218.701171875 -18.115234375Q220.068359375 -14.55078125 222.65625 -12.8173828125Q225.244140625 -11.083984375 228.955078125 -11.083984375Q233.59375 -11.083984375 237.20703125 -12.3291015625Q240.8203125 -13.57421875 244.23828125 -15.8203125V-3.076171875Q240.8203125 -0.927734375 237.0849609375 0.0244140625Q233.349609375 0.9765625 227.63671875 0.9765625Z M271.77734375 -75.9765625V-60.498046875Q271.77734375 -56.4453125 271.5087890625 -52.783203125Q271.240234375 -49.12109375 271.09375 -47.607421875H271.875Q273.6328125 -50.439453125 276.0498046875 -52.197265625Q278.466796875 -53.955078125 281.396484375 -54.78515625Q284.326171875 -55.615234375 287.6953125 -55.615234375Q293.603515625 -55.615234375 297.998046875 -53.5400390625Q302.392578125 -51.46484375 304.833984375 -47.0458984375Q307.275390625 -42.626953125 307.275390625 -35.595703125V0.0H292.3828125V-31.884765625Q292.3828125 -37.744140625 290.234375 -40.72265625Q288.0859375 -43.701171875 283.59375 -43.701171875Q279.1015625 -43.701171875 276.513671875 -41.6259765625Q273.92578125 -39.55078125 272.8515625 -35.5224609375Q271.77734375 -31.494140625 271.77734375 -25.68359375V0.0H256.884765625V-75.9765625Z"/><path d="M182.42,-73.66 L193.72,-73.66 M193.72,-73.66 L198.58,-75.83 M193.72,-73.66 L199.04,-73.66 M193.72,-73.66 L198.58,-71.49 M182.42,-73.66 L193.08,-69.90 M193.08,-69.90 L198.38,-70.33 M193.08,-69.90 L198.09,-68.13 M193.08,-69.90 L196.93,-66.24 M182.42,-73.66 L192.74,-69.07 M192.74,-69.07 L198.06,-69.07 M192.74,-69.07 L197.60,-66.90 M192.74,-69.07 L196.30,-65.11 M182.42,-73.66 L190.62,-65.89 M190.62,-65.89 L195.64,-64.13 M190.62,-65.89 L194.49,-62.23 M190.62,-65.89 L192.66,-60.98 M182.42,-73.66 L189.98,-65.26 M189.98,-65.26 L194.84,-63.11 M189.98,-65.26 L193.54,-61.31 M189.98,-65.26 L191.62,-60.21 M182.42,-73.66 L186.76,-63.23 M186.76,-63.23 L190.62,-59.57 M186.76,-63.23 L188.79,-58.32 M186.76,-63.23 L186.61,-57.91 M182.42,-73.66 L185.91,-62.92 M185.91,-62.92 L189.48,-58.97 M185.91,-62.92 L187.56,-57.86 M185.91,-62.92 L185.35,-57.63 M182.42,-73.66 L182.14,-62.37 M182.14,-62.37 L184.18,-57.46 M182.14,-62.37 L182.00,-57.05 M182.14,-62.37 L179.85,-57.57 M182.42,-73.66 L181.24,-62.42 M181.24,-62.42 L182.89,-57.37 M181.24,-62.42 L180.69,-57.14 M181.24,-62.42 L178.58,-57.82 M182.42,-73.66 L177.57,-63.46 M177.57,-63.46 L177.44,-58.14 M177.57,-63.46 L175.28,-58.66 M177.57,-63.46 L173.52,-60.01 M182.42,-73.66 L176.77,-63.88 M176.77,-63.88 L176.22,-58.59 M176.77,-63.88 L174.11,-59.27 M176.77,-63.88 L172.47,-60.76 M182.42,-73.66 L173.84,-66.32 M173.84,-66.32 L171.56,-61.51 M173.84,-66.32 L169.80,-62.86 M173.84,-66.32 L168.74,-64.81 M182.42,-73.66 L173.28,-67.02 M173.28,-67.02 L170.63,-62.41 M173.28,-67.02 L168.98,-63.89 M173.28,-67.02 L168.08,-65.92 M182.42,-73.66 L171.59,-70.44 M171.59,-70.44 L167.55,-66.98 M171.59,-70.44 L166.49,-68.93 M171.59,-70.44 L166.32,-71.14 M182.42,-73.66 L171.37,-71.31 M171.37,-71.31 L167.07,-68.18 M171.37,-71.31 L166.17,-70.21 M171.37,-71.31 L166.17,-72.42 M182.42,-73.66 L171.22,-75.13 M171.22,-75.13 L166.12,-73.61 M171.22,-75.13 L165.95,-75.82 M171.22,-75.13 L166.69,-77.91 M182.42,-73.66 L171.37,-76.01 M171.37,-76.01 L166.17,-74.90 M171.37,-76.01 L166.17,-77.12 M171.37,-76.01 L167.07,-79.14 M182.42,-73.66 L172.78,-79.56 M172.78,-79.56 L167.51,-80.24 M172.78,-79.56 L168.25,-82.33 M172.78,-79.56 L169.77,-83.94 M182.42,-73.66 L173.28,-80.30 M173.28,-80.30 L168.08,-81.40 M173.28,-80.30 L168.98,-83.43 M173.28,-80.30 L170.63,-84.91 M182.42,-73.66 L176.01,-82.97 M176.01,-82.97 L171.47,-85.74 M176.01,-82.97 L173.00,-87.35 M176.01,-82.97 L175.05,-88.20 M182.42,-73.66 L176.77,-83.45 M176.77,-83.45 L172.47,-86.57 M176.77,-83.45 L174.11,-88.05 M176.77,-83.45 L176.22,-88.74 M182.42,-73.66 L180.35,-84.77 M180.35,-84.77 L177.33,-89.15 M180.35,-84.77 L179.38,-90.00 M180.35,-84.77 L181.60,-89.94 M182.42,-73.66 L181.24,-84.90 M181.24,-84.90 L178.58,-89.50 M181.24,-84.90 L180.69,-90.19 M181.24,-84.90 L182.89,-89.95 M182.42,-73.66 L185.05,-84.65 M185.05,-84.65 L184.07,-89.88 M185.05,-84.65 L186.29,-89.82 M185.05,-84.65 L188.29,-88.87 M182.42,-73.66 L185.91,-84.41 M185.91,-84.41 L185.35,-89.70 M185.91,-84.41 L187.56,-89.46 M185.91,-84.41 L189.48,-88.36 M182.42,-73.66 L189.29,-82.63 M189.29,-82.63 L190.52,-87.80 M189.29,-82.63 L192.53,-86.85 M189.29,-82.63 L193.97,-85.17 M182.42,-73.66 L189.98,-82.06 M189.98,-82.06 L191.62,-87.12 M189.98,-82.06 L193.54,-86.01 M189.98,-82.06 L194.84,-84.22 M182.42,-73.66 L192.35,-79.06 M192.35,-79.06 L195.58,-83.29 M192.35,-79.06 L197.02,-81.60 M192.35,-79.06 L197.65,-79.48 M182.42,-73.66 L192.74,-78.26 M192.74,-78.26 L196.30,-82.21 M192.74,-78.26 L197.60,-80.42 M192.74,-78.26 L198.06,-78.25 M182.42,-73.66 L193.69,-74.56 M193.69,-74.56 L198.35,-77.10 M193.69,-74.56 L198.99,-74.98 M193.69,-74.56 L198.70,-72.78" fill="none" stroke="#83AA3D" stroke-width="1.3" stroke-linecap="round"/><circle cx="182.42" cy="-73.66" r="2.66" fill="#83AA3D"/><path d="M210.67,-91.94 L220.22,-99.95 M220.22,-99.95 L222.39,-106.45 M220.22,-99.95 L224.49,-105.31 M220.22,-99.95 L226.24,-103.22 M220.22,-99.95 L227.00,-100.96" fill="none" stroke="#83AA3D" stroke-width="1.25" stroke-linecap="round"/><circle cx="210.67" cy="-91.94" r="1.50" fill="#83AA3D"/><path d="M233.93,-110.22 L243.72,-114.78 M243.72,-114.78 L247.00,-119.74 M243.72,-114.78 L248.50,-118.31 M243.72,-114.78 L249.50,-116.17 M243.72,-114.78 L249.62,-114.11" fill="none" stroke="#83AA3D" stroke-width="1.15" stroke-linecap="round"/><circle cx="233.93" cy="-110.22" r="1.30" fill="#83AA3D"/><path d="M260.52,-105.23 L265.76,-112.72 M265.76,-112.72 L266.07,-117.74 M265.76,-112.72 L267.77,-117.33 M265.76,-112.72 L269.40,-116.18 M265.76,-112.72 L270.37,-114.72" fill="none" stroke="#83AA3D" stroke-width="1.05" stroke-linecap="round"/><circle cx="260.52" cy="-105.23" r="1.10" fill="#83AA3D"/></svg>